Coordinates
version=1
nRows=18
nColumns=19
inDegrees=yes

Units are S.I. units (second, meters, Newtons, ...)
If the header above contains a line with 'inDegrees', this indicates whether rotational values are in degrees (yes) or radians (no).

endheader
time	pelvis_tilt	pelvis_list	pelvis_rotation	pelvis_tx	pelvis_ty	pelvis_tz	hip_flexion_r	hip_adduction_r	hip_rotation_r	knee_angle_r	knee_angle_r_beta	ankle_angle_r	hip_flexion_l	hip_adduction_l	hip_rotation_l	knee_angle_l	knee_angle_l_beta	ankle_angle_l
     15.48000000	     -3.34444080	     -1.72952846	     -6.24144400	      2.33690817	      0.90831360	      1.05138399	     30.60754822	      6.21416527	     -5.78517551	     22.77476469	      0.39749463	     -4.14969315	    -18.15700490	     -2.52005572	     -7.78797096	     98.66746424	      1.72207212	     -5.86999628
     15.48666667	     -3.03660860	     -2.54028045	     -6.66257769	      2.33608308	      0.90334458	      1.05182719	     29.91183343	      7.04309325	     -5.86400378	     25.47372714	      0.44460041	     -2.34299427	    -16.87942155	     -3.53416518	     -8.07428296	    102.95797426	      1.79695564	     -5.65096888
     15.49333333	     -3.95606755	     -2.50092231	     -6.91585579	      2.33460855	      0.89697825	      1.05207692	     30.86951769	      7.06668392	     -5.72462479	     28.82014912	      0.50300649	     -0.23644718	    -13.67375458	     -3.70838928	     -7.72931491	    107.42717271	      1.87495787	     -5.41773393
     15.50000000	     -4.35889495	     -2.85340314	     -7.31341277	      2.33305427	      0.89123827	      1.05253312	     30.94894808	      7.56032813	     -5.43562951	     31.80471345	      0.55509697	      2.20117767	    -11.05692386	     -4.43301846	     -7.70482119	    111.57410309	      1.94733546	     -5.11772528
     15.50666667	     -4.42438641	     -3.35506486	     -7.75398956	      2.33128422	      0.88610782	      1.05307933	     30.44979294	      8.20410588	     -5.12876357	     34.55850979	      0.60315978	      5.04076173	     -8.71189907	     -5.41771246	     -7.72728145	    115.42251865	      2.01450298	     -4.66867000
     15.51333333	     -4.90444473	     -3.40052093	     -8.26565653	      2.32921882	      0.88124332	      1.05364609	     30.29347014	      8.56888270	     -4.28616668	     37.12794714	      0.64800492	      7.88765756	     -5.50869576	     -5.87468452	     -7.57499242	    118.95934144	      2.07623218	     -4.59999169
     15.52000000	     -2.58444464	     -3.51420314	    -10.60326332	      2.33088391	      0.88098866	      1.05573481	     26.30379637	      9.32150016	     -1.71983015	     39.06100229	      0.68174310	     11.17470924	     -6.64491146	     -5.62220825	     -9.78610082	    119.88024157	      2.09230492	     -4.76292184
     15.52666667	      0.92423872	     -4.12297556	    -12.80075517	      2.33319539	      0.88324751	      1.05760726	     20.31974970	      9.88085706	      0.84761488	     40.04236117	      0.69887104	     14.39180240	     -9.24570380	     -5.61339720	    -12.08551128	    119.94066035	      2.09335943	     -5.00243396
     15.53333333	      3.89324554	     -4.20356306	    -14.67277079	      2.33429239	      0.88576140	      1.05913768	     14.92126838	      9.47010126	      3.40348575	     40.70577434	      0.71044979	     17.31685310	    -10.57622277	     -5.06338117	    -13.91365058	    119.95907498	      2.09368083	     -5.19935526
     15.54000000	      6.60191428	     -4.09151640	    -15.90048533	      2.33431779	      0.88896429	      1.06018650	      9.65854706	      8.42217598	      5.42468643	     40.68904460	      0.71015780	     19.81803504	    -11.02770294	     -4.53869042	    -15.03854925	    119.96712233	      2.09382128	     -5.36455326
     15.54666667	      8.61045689	     -3.39564466	    -16.81135654	      2.33322063	      0.89215839	      1.06107628	      5.29803685	      6.69149896	      7.11713611	     40.33300977	      0.70394382	     21.82371265	    -10.08318805	     -3.70584243	    -15.74448971	    119.97118748	      2.09389223	     -5.35863193
     15.55333333	     10.19449211	     -2.48611968	    -17.20836072	      2.33112130	      0.89561802	      1.06162623	      1.34725570	      4.67697236	      8.14671989	     39.43242299	      0.68822561	     23.18144231	     -8.22259574	     -2.96460468	    -15.95831175	    119.97300647	      2.09392398	     -5.23038439
     15.56000000	     10.85729901	     -1.11075750	    -17.30738301	      2.32815524	      0.89861406	      1.06210397	     -1.48290414	      2.45229425	      8.74008000	     38.30641080	      0.66857299	     23.95653690	     -4.92876988	     -2.12291586	    -15.90177617	    119.97340286	      2.09393089	     -4.98783068
     15.56666667	     10.81160783	      0.35904730	    -16.86654733	      2.32458104	      0.90130894	      1.06221642	     -3.65458263	      0.39691684	      8.68522799	     36.83745782	      0.64293493	     23.92314190	     -0.61868494	     -1.45058046	    -15.42040997	    119.97249031	      2.09391497	     -4.57310245
     15.57333333	      9.64061768	      2.02643962	    -16.00326670	      2.32058773	      0.90304036	      1.06197808	     -4.56225061	     -1.43616879	      8.12824042	     35.39990905	      0.61784497	     23.24489135	      5.14177822	     -0.79364796	    -14.66661833	    119.97019348	      2.09387488	     -4.16146362
     15.58000000	      7.41786107	      3.42340273	    -14.57542182	      2.31648795	      0.90380979	      1.06120818	     -4.53695634	     -2.60658506	      7.07513789	     33.84912067	      0.59077860	     21.86546569	     12.03229482	     -0.49147610	    -13.49722385	    119.96593779	      2.09380060	     -3.73980907
     15.58666667	      4.39370889	      4.24449776	    -12.53598779	      2.31240122	      0.90357737	      1.05978827	     -3.90977764	     -2.95082809	      5.48658846	     32.20841828	      0.56214295	     19.78435492	     19.69302067	     -0.53068932	    -11.72265522	    119.95826767	      2.09366674	     -3.34883723
     15.59333333	      0.57540752	      4.21901968	    -10.09527735	      2.30845896	      0.90211482	      1.05777629	     -2.62668280	     -2.30362478	      3.55373881	     30.52105541	      0.53269291	     17.05757330	     28.07433275	     -0.95579408	     -9.31418988	    119.94223411	      2.09338690	     -3.06659282
